PathFileType	4	(X/Y/Z)	C:/Users/opensim2020/Desktop/walking_exp_matlab/subject02_walking11_straight_02.trc																																																																																																																												
DataRate	CameraRate	NumFrames	NumMarkers	Units	OrigDataRate	OrigDataStartFrame	OrigNumFrames																																																																																																																								
100	100	6	42	mm	100	1720	230																																																																																																																								
Frame#	Time	LFHD			RFHD			LBHD			RBHD			C7			T10			CLAV			STRN			RBAK			LSHO			LUPA			LELB			LFRM			LWRA			LWRB			LFIN			RSHO			RUPA			RELB			RFRM			RWRA			RWRB			RFIN			LASI			RASI			LPSI			RPSI			LTHI			LKNE			LTIB			LANK			LHEE			LTOE			RTHI			RKNE			RTIB			RANK			RHEE			RTOE			*39			*40			*41		
		X1	Y1	Z1	X2	Y2	Z2	X3	Y3	Z3	X4	Y4	Z4	X5	Y5	Z5	X6	Y6	Z6	X7	Y7	Z7	X8	Y8	Z8	X9	Y9	Z9	X10	Y10	Z10	X11	Y11	Z11	X12	Y12	Z12	X13	Y13	Z13	X14	Y14	Z14	X15	Y15	Z15	X16	Y16	Z16	X17	Y17	Z17	X18	Y18	Z18	X19	Y19	Z19	X20	Y20	Z20	X21	Y21	Z21	X22	Y22	Z22	X23	Y23	Z23	X24	Y24	Z24	X25	Y25	Z25	X26	Y26	Z26	X27	Y27	Z27	X28	Y28	Z28	X29	Y29	Z29	X30	Y30	Z30	X31	Y31	Z31	X32	Y32	Z32	X33	Y33	Z33	X34	Y34	Z34	X35	Y35	Z35	X36	Y36	Z36	X37	Y37	Z37	X38	Y38	Z38	X39	Y39	Z39	X40	Y40	Z40	X41	Y41	Z41	X42	Y42	Z42
																																																																																																																															
87	0.86	-233.06854	1756.47998	1068.21082	-243.01247	1720.36182	1207.3728	-361.27237	1681.53625	1040.93518	-382.59497	1643.58557	1178.95996	-416.05505	1535.96143	1104.46326	-474.68295	1261.05859	1114.13965	-279.4935	1464.30493	1081.5343	-230.54913	1291.0072	1087.26514	-472.11304	1364.03076	1173.25354	-360.95746	1512.85913	919.24561	-398.91986	1315.01819	839.24884	-418.31808	1175.49158	831.36517	-425.07477	1044.51636	815.60046	-381.07071	911.85706	839.65619	-428.93567	920.659	809.99628	-417.20609	854.00647	806.12598	-322.49771	1497.35254	1282.59705	-333.29633	1304.58276	1370.81824	-309.91504	1159.7998	1386.57874	-267.60397	1047.89417	1404.22314	-205.90315	927.86279	1384.29761	-250.51514	919.18994	1417.92798	-205.47423	862.30713	1420.35217	-252.42894	1001.37555	963.82532	-232.73383	984.4151	1219.29919	-455.92642	1040.79626	1059.11731	-451.96738	1039.89429	1173.98853	-274.93738	696.42004	885.06	-255.47409	505.54172	900.2323	-362.16647	351.36526	925.74597	-422.06436	137.11037	958.07532	-441.15631	113.79414	1020.71741	-305.40021	59.33545	893.85895	-311.37146	676.15155	1276.43933	-324.54764	466.66946	1228.61951	-374.80353	284.13022	1229.70837	-402.81744	94.15314	1185.59814	-439.0842	42.37458	1127.53833	-253.674	38.74115	1206.61865	-342.38492	1808.88794	1158.22986	-2845.99609	1034.25269	3356.97607	NaN	NaN	NaN
88	0.87	-225.14432	1755.98181	1067.80554	-234.33214	1719.78638	1207.42126	-353.90283	1682.00085	1041.28772	-374.81876	1644.21387	1179.76794	-409.17368	1536.1897	1105.69031	-468.22342	1261.28381	1115.47925	-272.92795	1464.34253	1082.19788	-223.96071	1290.94067	1088.24365	-465.07813	1364.38989	1175.00085	-355.19623	1512.56226	920.31866	-395.83401	1315.38159	840.70587	-416.07513	1175.73474	832.66553	-423.72083	1044.7981	816.59393	-380.15817	911.86011	840.04333	-428.09738	920.78278	811.33569	-416.9104	854.19501	806.8938	-314.77734	1497.995	1283.45667	-323.60538	1305.10034	1371.91687	-298.5329	1160.5957	1388.10718	-254.91809	1049.03735	1405.40112	-191.99611	929.86945	1384.74768	-236.01666	920.80945	1419.18738	-190.31631	864.31519	1420.74451	-246.00655	1001.763	965.08221	-226.93391	983.62823	1220.53125	-449.7659	1041.12	1059.58276	-445.95081	1040.005	1174.40649	-266.57101	697.18994	885.80688	-244.98318	505.66	901.80786	-345.85944	346.70712	926.14398	-396.81857	129.86534	956.97546	-414.94788	105.6107	1019.57819	-276.7374	57.54166	892.89655	-307.86206	675.8103	1276.53821	-322.82184	466.7558	1229.04663	-374.01096	284.23914	1229.64124	-402.66348	94.25524	1185.5498	-439.0582	42.49189	1127.51978	-253.65578	38.68297	1206.66235	-333.32205	1809.13379	1158.61316	NaN	NaN	NaN	NaN	NaN	NaN
89	0.88	-216.63991	1754.87329	1067.92786	-225.83417	1719.25537	1207.21082	-346.5809	1682.26978	1042.06592	-367.12271	1644.65942	1180.54871	-402.28571	1536.30615	1106.82532	-461.32642	1261.27307	1116.66638	-266.26227	1464.10266	1082.59839	-217.50293	1290.69434	1089.17542	-458.19299	1364.64404	1176.6759	-349.34448	1512.0033	921.29498	-391.80338	1315.38892	842.07343	-413.26132	1175.68713	834.1153	-421.7861	1044.87769	817.74731	-379.28708	911.97882	840.23718	-427.78082	921.19019	812.40015	-416.61517	854.49799	807.54907	-307.01379	1498.23071	1284.05579	-313.80344	1305.71362	1373.29395	-287.28531	1161.33325	1389.52185	-242.28735	1050.26648	1406.59229	-178.13583	931.90485	1385.1543	-221.58937	922.28943	1419.98499	-175.29832	866.30322	1421.04114	-239.7796	1001.8064	966.08221	-220.47339	982.92981	1221.58032	-443.60086	1041.30249	1059.99951	-439.84067	1040.01807	1174.78748	-257.63031	697.93225	886.99481	-234.85791	505.62985	903.19031	-329.66098	341.96826	926.16028	-371.42645	122.87096	955.40161	-389.20227	97.95966	1017.89294	-247.86586	55.93588	891.84204	-304.26132	675.44971	1276.5592	-321.04269	466.54483	1229.10803	-373.18246	284.33069	1229.58923	-402.58524	94.37306	1185.37817	-439.03949	42.57978	1127.34106	-253.79085	38.59966	1206.71643	-324.30652	1809.22864	1158.82813	-2845.98608	1034.22046	3356.88354	NaN	NaN	NaN
90	0.89	-208.67873	1754.1488	1067.33667	-217.27469	1718.54309	1206.93335	-339.1055	1682.59387	1042.62756	-359.64651	1645.39929	1181.6709	-395.38202	1536.25183	1107.7981	-455.23044	1261.39856	1117.83142	-259.49506	1463.72058	1083.3407	-211.04524	1290.38623	1089.95825	-451.21594	1364.86072	1178.17432	-343.67346	1511.57202	922.0603	-387.99133	1315.11597	843.26807	-410.47131	1175.74133	835.41113	-420.44781	1045.0675	818.97302	-378.06903	911.95068	840.25702	-427.0332	921.35834	813.44135	-416.14081	854.68762	808.03552	-299.18109	1498.31042	1284.5907	-304.24783	1306.20093	1374.62207	-276.08627	1162.17297	1390.90674	-229.6423	1051.44714	1407.1377	-164.35364	933.85291	1385.37305	-207.3273	923.76569	1420.75085	-160.39627	868.31201	1421.26062	-233.32397	1001.74329	966.70178	-214.80638	982.04034	1222.42273	-437.31235	1041.29199	1060.38	-433.73486	1039.94299	1175.15344	-248.9496	698.9353	887.49097	-225.08658	505.38272	904.64832	-313.45139	337.18781	925.82678	-345.78369	116.27952	953.4201	-363.22141	89.96741	1015.45258	-218.9706	54.58821	890.50452	-300.65036	675.10535	1276.53918	-319.21622	466.02747	1228.7406	-372.35571	284.43091	1229.51001	-402.39423	94.51907	1185.3252	-439.08157	42.81076	1127.27429	-253.83403	38.57943	1206.76123	-315.1478	1809.49329	1159.09241	-2845.92773	1034.09619	3356.89746	NaN	NaN	NaN
91	0.9	-200.53717	1752.92908	1067.17981	-208.77478	1717.77795	1206.71594	-331.7449	1682.4906	1042.89795	-351.60782	1645.98816	1182.38672	-388.51343	1536.14563	1108.66199	-448.75009	1261.31396	1118.74866	-252.87865	1463.50415	1083.54382	-204.42268	1289.83911	1090.73633	-444.36475	1364.88782	1179.4386	-337.86029	1510.99707	922.80109	-383.80432	1314.96362	844.46466	-407.72433	1175.87488	836.8244	-418.36581	1044.92383	820.05353	-376.81308	911.7998	840.19275	-426.16589	921.49146	814.3418	-415.85501	855.04126	808.3078	-291.7081	1498.45789	1284.87866	-294.85422	1306.60315	1375.65771	-265.00604	1162.7605	1391.96777	-217.02785	1052.61194	1407.8877	-150.72063	935.7207	1385.4696	-193.19206	925.19049	1421.26929	-145.62708	870.27478	1421.32043	-226.80345	1001.49756	967.04358	-208.94347	981.29633	1223.11328	-430.99353	1041.09021	1060.72681	-427.60126	1039.82275	1175.52466	-240.35573	699.36407	888.21936	-215.79179	504.86325	905.94287	-297.14032	332.40643	925.22205	-320.2576	110.13945	950.92664	-336.67743	82.75937	1012.63751	-190.1669	53.85569	889.02606	-296.94397	674.70233	1276.58179	-317.17508	466.09784	1229.15576	-371.43591	284.52475	1229.38196	-402.5188	94.75083	1184.89539	-438.92804	42.65704	1127.15723	-253.84265	38.5377	1206.82959	-306.10529	1809.28113	1158.90552	-2845.1499	1034.09546	3360.26196	NaN	NaN	NaN
92	0.91	-192.20836	1752.07654	1066.72791	-200.28282	1716.85376	1206.24927	-324.14462	1682.09167	1043.37695	-343.86646	1646.19739	1182.73523	-381.66516	1535.94666	1109.34949	-442.29047	1261.11633	1119.59033	-246.21324	1463.05493	1083.96375	-197.90346	1289.60645	1091.28076	-437.45065	1364.74854	1180.10193	-331.92484	1510.29785	923.37506	-379.50803	1314.66858	845.54102	-404.4429	1175.81091	837.95605	-416.74478	1045.08435	821.02472	-375.35278	911.59326	840.0271	-425.11542	921.61157	815.2049	-415.56827	855.23688	808.66882	-284.22211	1498.54602	1285.23657	-285.46375	1306.67822	1376.09949	-254.01248	1163.11279	1392.62329	-204.68132	1053.68079	1408.45239	-137.25845	937.61084	1385.42114	-179.23456	926.59045	1421.67346	-130.97682	872.2403	1421.29248	-220.30182	1001.0589	967.32391	-202.97437	980.61261	1223.57813	-424.61554	1040.76807	1061.05408	-421.36331	1039.47754	1175.72656	-232.07716	699.59436	889.36908	-206.53151	504.2149	907.29254	-280.75751	327.70297	924.18591	-294.22873	104.18156	948.48297	-310.64914	76.4049	1009.51801	-161.302	53.72172	887.50226	-293.33328	674.32922	1276.62769	-315.19977	465.52518	1228.8197	-370.40939	284.59521	1229.3363	-402.32047	94.89974	1184.74304	-438.79565	42.74178	1127.00781	-253.8851	38.52343	1206.92078	-296.99759	1809.39136	1159.11804	-2845.80273	1034.1897	3356.97021	NaN	NaN	NaN
